<svg id="Layer_1" data-name="Layer 1" xmlns="http://www.w3.org/2000/svg" viewBox="0 0 257.51 75.56"><defs><style>.cls-1{fill:#fff;}</style></defs><title>glassBeat-logo</title><path class="cls-1" d="M236.75,154.62s4.69-6.51,11.2-1.82,21.25,8.56,27.06-3.88c3.21-6.87-2.57-17.12-15.82-10.49-7.73,3.87-17,14.26-15.28,25s19.18,10.94,30.59-2.41a95.73,95.73,0,0,1,2.78,22.2c0,10.71-3.67,23.39-10.72,23-5.16-.26-7-2.47-7.89-5.58-1.64-5.77,2.39-14.72,11-20.53,13.18-8.94,36.91-26.91,36.34-33.61s-7.79-2.91-10.69,1.74c0,0,1.9-10.76-5.22-9.6s-6.17,16.68-3.65,22.54l3.74-2.7s-5.12-12.23-2-15.36,5.83,3.75,5.73,9.52c0,0,6.22-6.76,8.16-4.46s-14.48,17-32.93,28.87-17.92,28-10.3,33,19.36.1,20.45-25.27a107.45,107.45,0,0,0-3.19-29.27s-8.78,10.31-18.48,10.06-12.71-12.3-4.29-19.94,21.21-5.4,19.69,2.95c-.7,3.88-7.4,5.8-16.36,1.48C251,147.34,242.4,141.16,236.75,154.62Z" transform="translate(-236.75 -136.28)"/><path class="cls-1" d="M307.38,194.9c-6.41,0-11.43-3.51-11.43-10.3V174.12c0-6.88,4.8-11.17,11.51-11.17,6.45,0,11,3.16,11,8.74v1.13h-3.38v-.69c0-4-2.86-6.06-7.75-6.06-4.72,0-7.75,2.9-7.75,7.75v10.52c0,4.67,3,7.49,7.92,7.49,4.67,0,7.7-2.21,7.7-6.71v-3.25h-7.79v-3.2h11.17v6.23C318.59,191.74,313.7,194.9,307.38,194.9Z" transform="translate(-236.75 -136.28)"/><path class="cls-1" d="M329.89,194.81c-3.72,0-5.19-2.21-5.19-5.32v-26h3.38V189.4c0,1.43.65,2.6,2.42,2.6a15.68,15.68,0,0,0,2.73-.35v2.55A13,13,0,0,1,329.89,194.81Z" transform="translate(-236.75 -136.28)"/><path class="cls-1" d="M350.33,194.38c0-.61-.13-1.73-.13-2.38h-.13a8.11,8.11,0,0,1-6.32,2.86c-3.9,0-7.49-2-7.49-6.06,0-5.5,5.11-6.93,8.61-6.93h5.28V179c0-3-1.82-4.42-4.72-4.42-2.38,0-4.85.82-4.85,3.33v.61h-3.07v-.39c0-4.5,3.94-6.1,8.09-6.1s7.79,1.64,7.79,6.41v11.43a29.24,29.24,0,0,0,.35,4.5Zm-.17-10h-5.28c-2.64,0-5.19.78-5.19,4.15,0,2.55,2.12,3.64,4.46,3.64,3.46,0,6-2,6-5.24Z" transform="translate(-236.75 -136.28)"/><path class="cls-1" d="M367,194.9c-3.46,0-6.67-.91-8.79-3.33l2.29-2.16a8.93,8.93,0,0,0,6.45,2.77c2.34,0,5.32-1.21,5.32-3.59s-1.52-3.07-4.24-3.64l-3-.61c-3.2-.65-5.71-2.34-5.71-5.63,0-3.72,2.9-6.62,7.88-6.62,3.16,0,5.67.65,7.4,2.51l-2.12,2.12a7.46,7.46,0,0,0-5.54-1.9c-2.55,0-4.2,1.43-4.2,3.29s1.3,2.81,3.64,3.25l3.64.74c2.9.56,5.67,2.17,5.67,5.8C375.65,192.56,371.19,194.9,367,194.9Z" transform="translate(-236.75 -136.28)"/><path class="cls-1" d="M387.86,194.9c-3.46,0-6.67-.91-8.79-3.33l2.29-2.16a8.93,8.93,0,0,0,6.45,2.77c2.34,0,5.32-1.21,5.32-3.59s-1.52-3.07-4.24-3.64l-3-.61c-3.2-.65-5.71-2.34-5.71-5.63,0-3.72,2.9-6.62,7.88-6.62,3.16,0,5.67.65,7.4,2.51l-2.12,2.12a7.46,7.46,0,0,0-5.54-1.9c-2.55,0-4.2,1.43-4.2,3.29s1.3,2.81,3.64,3.25l3.64.74c2.9.56,5.67,2.17,5.67,5.8C396.56,192.56,392.1,194.9,387.86,194.9Z" transform="translate(-236.75 -136.28)"/><path class="cls-1" d="M423.35,194.38H412V163.52H423.4c5.19,0,8.74,2.64,8.74,7.79a7.29,7.29,0,0,1-4.8,7v.13a7.14,7.14,0,0,1,5.71,7.23C433.05,191.61,428.12,194.38,423.35,194.38Zm5.06-22.72c0-3.68-2.34-5.06-5.58-5.06h-7.32v10.47h7.06c3.25,0,5.8-1.69,5.8-5.41ZM422.71,180h-7.19v11.34H423c3.64,0,6.23-1.77,6.23-5.76S426.34,180,422.71,180Z" transform="translate(-236.75 -136.28)"/><path class="cls-1" d="M447.29,194.9c-5.37,0-9.7-2.77-9.7-8.87v-4.72c0-6.06,3.94-9.22,9.13-9.22,4.93,0,8.44,3.07,8.44,8.7v3.68H441V186c0,3.51,2.29,6.06,6.45,6.06a6.81,6.81,0,0,0,5.24-2.94l2.47,1.38A9.14,9.14,0,0,1,447.29,194.9Zm4.59-14.2c0-3-1.3-5.8-5.19-5.8a5.28,5.28,0,0,0-5.67,5.54v1.47h10.86Z" transform="translate(-236.75 -136.28)"/><path class="cls-1" d="M473.27,194.38c0-.61-.13-1.73-.13-2.38H473a8.11,8.11,0,0,1-6.32,2.86c-3.9,0-7.49-2-7.49-6.06,0-5.5,5.11-6.93,8.61-6.93h5.28V179c0-3-1.82-4.42-4.72-4.42-2.38,0-4.85.82-4.85,3.33v.61h-3.07v-.39c0-4.5,3.94-6.1,8.09-6.1s7.79,1.64,7.79,6.41v11.43a29.24,29.24,0,0,0,.35,4.5Zm-.17-10h-5.28c-2.64,0-5.19.78-5.19,4.15,0,2.55,2.12,3.64,4.46,3.64,3.46,0,6-2,6-5.24Z" transform="translate(-236.75 -136.28)"/><path class="cls-1" d="M489.81,194.77c-2.68,0-5.63-1-5.63-4.93V175.42h-3.9v-2.68h3.85v-7.36h3.33v7.36H494v2.64h-6.54v13.89c0,1.95,1,2.73,2.9,2.73a11.77,11.77,0,0,0,3.9-.74v2.6A12.73,12.73,0,0,1,489.81,194.77Z" transform="translate(-236.75 -136.28)"/></svg>